<svg id="icon" width="512" height="512" viewBox="0 0 512 512" fill="none"
  xmlns="http://www.w3.org/2000/svg">
  <circle cx="256" cy="256" r="256" fill="white"/>
  <path d="M215.354 414.75C187.754 414.75 166.904 409.95 152.804 400.35C139.004 390.75 132.104 379.05 132.104 365.25C132.104 355.05 135.104 346.95 141.104 340.95C147.404 334.65 155.654 331.5 165.854 331.5C168.254 331.5 170.654 331.8 173.054 332.4C175.454 332.7 177.104 332.85 178.004 332.85L183.854 333.75V401.25C185.954 402.45 188.054 403.2 190.154 403.5C195.254 405 200.654 405.75 206.354 405.75C242.354 405.75 260.354 376.5 260.354 318V106.5L233.354 99.75V93H361.604V99.75L334.604 106.5V318C334.604 349.2 324.854 373.2 305.354 390C285.854 406.5 255.854 414.75 215.354 414.75Z" fill="#515C6B"/>
</svg>
