<svg version="1" xmlns="http://www.w3.org/2000/svg" width="682.667" height="682.667" viewBox="0 0 512.000000 512.000000"><path d="M233 96c0 3.7.7 4.1 15.3 7.6l11.8 2.8-.4 120.1c-.3 117.8-.3 120.2-2.4 129-4.4 18.7-10.1 30.3-19 38.5-6.4 5.8-11.9 8.6-20.9 10.5-10.3 2.2-17.1 1.8-29.6-1.5l-3.8-1.1V334l-2.7-.7c-1.6-.4-8.2-.7-14.8-.8-11.1 0-12.4.2-17 2.7-6.5 3.4-11.8 9-14.7 15.3-1.8 4-2.2 6.8-2.2 14 0 12.2 2.5 18.4 10.9 27.3 15.5 16.4 35.7 22.6 73.5 22.5 57.9-.1 91.8-16.2 108.5-51.4 4.5-9.7 7.3-20.7 8.5-34.4.6-6.3 1-56.1 1-116.5V106.4l11.8-2.8c14.5-3.5 15.2-3.9 15.2-7.6v-3H233v3z"/></svg>