<?xml version="1.0" standalone="no"?>
<!DOCTYPE svg PUBLIC "-//W3C//DTD SVG 20010904//EN"
 "http://www.w3.org/TR/2001/REC-SVG-20010904/DTD/svg10.dtd">
<svg version="1.0" xmlns="http://www.w3.org/2000/svg"
 width="512.000000pt" height="512.000000pt" viewBox="0 0 512.000000 512.000000"
 preserveAspectRatio="xMidYMid meet">
<metadata>
Created by potrace 1.11, written by Peter Selinger 2001-2013
</metadata>
<g transform="translate(0.000000,512.000000) scale(0.100000,-0.100000)"
fill="#000000" stroke="none">
<path d="M2332 4158 l3 -33 133 -34 132 -34 0 -1155 c0 -1257 0 -1267 -57
-1446 -37 -117 -78 -192 -141 -258 -123 -130 -312 -168 -524 -108 l-38 11 0
339 0 340 -27 7 c-16 4 -82 7 -148 7 -111 1 -124 -1 -170 -26 -65 -34 -118
-90 -146 -153 -33 -72 -32 -206 1 -290 33 -85 147 -198 250 -249 310 -151 944
-133 1285 36 274 137 426 380 455 728 5 64 10 585 10 1166 l0 1051 133 34 132
34 3 33 3 32 -646 0 -646 0 3 -32z"/>
</g>
</svg>
